# xmcd
#
# Track frame offsets:
#   150
#   12996
#   24255
#   35365
#   45825
#   57650
#   73149
#   88793
#   100050
#   114336
#   126769
#   138475
#   151587
#   167536
#   180927
#   196747
#   209997
#   226564
#   240891
#   251018
#   263729
#   277790
#   290187
#   307947
#   317921
#   330528
#   342251
#
# Disc length: 4717 seconds
#
# Revision: 0
# Processed by: cddbd v1.5.1PL0 Copyright (c) Steve Scherf et al.
# Submitted via: Click'N Design 3D 4.8
#
DISCID=69126b1b
DTITLE=george jones 1 - assorted
DYEAR=2005
DGENRE=Country
TTITLE0=white lightning
TTITLE1=hotter than a two dollar pistol
TTITLE2=why baby why
TTITLE3=I'm a one woman man
TTITLE4=she thinks I still care
TTITLE5=all I have to offer you is me
TTITLE6=choices
TTITLE7=were not the jet set
TTITLE8=she's just an old love turned
TTITLE9=If my heart had windows
TTITLE10=from here to the door
TTITLE11=tennesse whiskey
TTITLE12=too country
TTITLE13=the window up above
TTITLE14=I don't need your rockin chair
TTITLE15=writing on the wall
TTITLE16=good year for the roses
TTITLE17=the grand tour
TTITLE18=walk through this world with me
TTITLE19=honky tonk song
TTITLE20=golden rings
TTITLE21=just a girl I used to know
TTITLE22=day after forever
TTITLE23=I gotta get drunk
TTITLE24=talking to hank
TTITLE25=a picture of me
TTITLE26=a picture of me
EXTD=
EXTT0=
EXTT1=
EXTT2=
EXTT3=
EXTT4=
EXTT5=
EXTT6=
EXTT7=
EXTT8=
EXTT9=
EXTT10=
EXTT11=
EXTT12=
EXTT13=
EXTT14=
EXTT15=
EXTT16=
EXTT17=
EXTT18=
EXTT19=
EXTT20=
EXTT21=
EXTT22=
EXTT23=
EXTT24=
EXTT25=
EXTT26=
PLAYORDER=
